<?xml version="1.0" encoding="UTF-8" standalone="no"?>
<svg
   xmlns:dc="http://purl.org/dc/elements/1.1/"
   xmlns:cc="http://creativecommons.org/ns#"
   xmlns:rdf="http://www.w3.org/1999/02/22-rdf-syntax-ns#"
   xmlns:svg="http://www.w3.org/2000/svg"
   xmlns="http://www.w3.org/2000/svg"
   viewBox="0 0 632.82574 154.68904"
   height="154.68904"
   width="632.82574"
   xml:space="preserve"
   version="1.1"
   id="svg4171"><metadata
     id="metadata4177"><rdf:RDF><cc:Work
         rdf:about=""><dc:format>image/svg+xml</dc:format><dc:type
           rdf:resource="http://purl.org/dc/dcmitype/StillImage" /><dc:title></dc:title></cc:Work></rdf:RDF></metadata><defs
     id="defs4175"><clipPath
       id="clipPath4185"
       clipPathUnits="userSpaceOnUse"><path
         id="path4187"
         d="m 0,280.008 612.283,0 L 612.283,0 0,0 0,280.008 Z" /></clipPath></defs><g
     transform="matrix(1.25,0,0,-1.25,-70.015952,239.2499)"
     id="g4179"><g
       id="g4181"><g
         clip-path="url(#clipPath4185)"
         id="g4183"><g
           transform="translate(134.8834,169.4272)"
           id="g4189"><path
             id="path4191"
             style="fill:#40b93c;fill-opacity:1;fill-rule:evenodd;stroke:none"
             d="M 0,0 C -0.006,0.233 -0.04,0.47 -0.096,0.697 -0.133,0.925 -0.222,1.127 -0.314,1.31 -0.432,1.481 -0.555,1.62 -0.69,1.727 -0.829,1.836 -0.992,1.892 -1.181,1.893 -2.017,1.867 -2.87,1.381 -3.728,0.438 -4.59,-0.507 -5.404,-1.774 -6.189,-3.34 -6.375,-3.685 -6.538,-4.067 -6.681,-4.499 -6.831,-4.932 -6.967,-5.372 -7.094,-5.812 -7.229,-6.259 -7.34,-6.7 -7.441,-7.143 -7.54,-7.576 -7.62,-7.97 -7.691,-8.315 c 0.826,0.59 1.603,1.135 2.305,1.641 0.712,0.499 1.375,1.024 1.983,1.557 0.388,0.336 0.786,0.697 1.189,1.088 0.41,0.395 0.777,0.808 1.108,1.242 0.335,0.437 0.601,0.877 0.804,1.349 C -0.099,-0.974 0.003,-0.488 0,0 m 17.93,-5.185 c -0.004,-0.232 -0.192,-0.648 -0.562,-1.236 -0.839,-1.156 -1.791,-2.318 -2.839,-3.472 -1.049,-1.158 -2.158,-2.252 -3.323,-3.287 -1.172,-1.033 -2.386,-1.993 -3.65,-2.879 -1.264,-0.888 -2.535,-1.654 -3.811,-2.291 -1.269,-0.636 -2.546,-1.12 -3.804,-1.452 -1.266,-0.326 -2.471,-0.465 -3.649,-0.418 -2.51,0.065 -4.452,0.85 -5.812,2.348 -1.353,1.506 -1.991,3.733 -1.914,6.7 0.022,0.728 0.071,1.444 0.155,2.16 -0.17,-0.262 -0.325,-0.49 -0.463,-0.688 -0.755,-1.067 -1.563,-2.108 -2.429,-3.112 -0.873,-1.014 -1.791,-1.936 -2.763,-2.779 -0.97,-0.842 -2,-1.559 -3.091,-2.159 -1.085,-0.591 -2.226,-1.003 -3.425,-1.219 -0.922,-0.155 -1.757,-0.116 -2.525,0.106 -0.768,0.225 -1.409,0.681 -1.942,1.381 -0.533,0.688 -0.975,1.493 -1.341,2.409 -0.354,0.909 -0.687,1.905 -1.002,2.973 -0.04,0.167 -0.108,0.416 -0.194,0.751 -0.093,0.339 -0.185,0.717 -0.296,1.123 -0.111,0.401 -0.226,0.813 -0.357,1.24 -0.143,0.427 -0.281,0.811 -0.411,1.157 -0.141,0.348 -0.277,0.619 -0.416,0.822 -0.145,0.216 -0.274,0.31 -0.394,0.288 -0.482,-0.081 -1.086,-0.519 -1.828,-1.302 -0.725,-0.785 -1.498,-1.782 -2.319,-3 -0.823,-1.217 -1.636,-2.572 -2.465,-4.069 -0.815,-1.493 -1.567,-3.003 -2.233,-4.522 -0.598,-1.309 -1.119,-2.619 -1.566,-3.906 -0.444,-1.304 -0.835,-2.432 -1.171,-3.4 -0.197,-0.449 -0.429,-0.782 -0.691,-0.993 -0.271,-0.214 -0.465,-0.327 -0.57,-0.345 -0.25,-0.042 -0.509,-0.028 -0.792,0.046 -0.275,0.071 -0.527,0.184 -0.78,0.336 -0.235,0.151 -0.439,0.337 -0.611,0.552 -0.182,0.225 -0.284,0.451 -0.32,0.684 -0.031,0.196 -0.047,0.538 -0.062,1.002 -0.003,0.475 -0.009,1.007 -0.009,1.594 0,0.59 -0.003,1.205 -0.019,1.83 -0.015,0.629 -0.031,1.215 -0.052,1.756 -0.071,1.044 -0.126,2.191 -0.195,3.438 -0.064,1.259 -0.138,2.516 -0.23,3.793 -0.08,1.269 -0.173,2.514 -0.263,3.727 -0.086,1.221 -0.182,2.311 -0.286,3.283 -0.037,0.312 -0.077,0.728 -0.133,1.255 -0.056,0.513 -0.123,1.082 -0.191,1.703 -0.071,0.617 -0.145,1.274 -0.235,1.964 -0.08,0.689 -0.166,1.353 -0.233,2.002 -0.081,0.652 -0.151,1.264 -0.226,1.839 -0.071,0.569 -0.135,1.05 -0.178,1.443 -0.062,0.439 -0.102,0.84 -0.12,1.223 -0.029,0.383 -0.035,0.756 -0.025,1.133 0,0.38 0.046,0.763 0.12,1.151 0.068,0.388 0.166,0.815 0.302,1.285 0.037,0.154 0.107,0.322 0.222,0.521 0.105,0.191 0.234,0.373 0.401,0.542 0.151,0.173 0.329,0.324 0.521,0.461 0.191,0.131 0.394,0.224 0.623,0.26 0.447,0.075 0.887,-0.038 1.303,-0.338 0.432,-0.296 0.694,-0.759 0.799,-1.396 0.03,-0.206 0.043,-0.483 0.03,-0.838 -0.011,-0.356 -0.03,-0.72 -0.067,-1.099 -0.028,-0.38 -0.064,-0.746 -0.086,-1.092 -0.031,-0.35 -0.047,-0.617 -0.047,-0.785 -0.018,-0.66 -0.012,-1.414 0.04,-2.255 0.043,-0.837 0.093,-1.693 0.152,-2.559 0.055,-0.866 0.12,-1.725 0.194,-2.568 0.073,-0.84 0.157,-1.595 0.222,-2.258 0.074,-0.748 0.126,-1.455 0.173,-2.118 0.037,-0.665 0.073,-1.331 0.107,-1.988 0.05,-0.655 0.08,-1.321 0.13,-1.991 0.055,-0.671 0.11,-1.388 0.173,-2.165 0.083,-1.172 0.129,-2.202 0.131,-3.101 0.016,-0.905 0.069,-1.669 0.17,-2.287 0.019,-0.099 0.083,-0.199 0.206,-0.304 0.122,-0.111 0.223,-0.157 0.306,-0.146 l 0.086,0.017 c 0.111,0.197 0.25,0.485 0.413,0.864 0.157,0.377 0.343,0.791 0.552,1.243 0.226,0.449 0.432,0.925 0.663,1.413 0.225,0.496 0.462,0.953 0.7,1.375 0.225,0.422 0.487,0.885 0.768,1.391 0.267,0.503 0.554,1.01 0.86,1.519 0.308,0.516 0.625,1.036 0.943,1.549 0.324,0.517 0.638,1.005 0.94,1.457 0.404,0.558 0.857,1.157 1.363,1.782 0.499,0.624 1.042,1.211 1.606,1.76 0.57,0.536 1.159,1 1.766,1.389 0.611,0.394 1.208,0.635 1.797,0.735 0.114,0.02 0.269,0.009 0.447,-0.023 0.192,-0.023 0.385,-0.091 0.577,-0.173 0.207,-0.091 0.398,-0.206 0.573,-0.339 0.191,-0.14 0.34,-0.307 0.444,-0.518 0.45,-0.783 0.829,-1.586 1.098,-2.398 0.286,-0.823 0.56,-1.683 0.82,-2.596 0.228,-0.782 0.468,-1.575 0.709,-2.401 0.255,-0.816 0.524,-1.557 0.807,-2.212 0.29,-0.658 0.601,-1.178 0.956,-1.57 0.343,-0.392 0.712,-0.549 1.14,-0.479 1.909,0.319 3.675,1.058 5.282,2.201 0.859,0.61 1.593,1.181 2.2,1.711 0.604,0.533 1.163,1.078 1.668,1.62 0.509,0.55 1.009,1.152 1.486,1.787 0.485,0.637 1.045,1.376 1.686,2.222 0.857,1.09 1.48,1.829 1.872,2.207 0.838,2.021 2.098,3.967 3.776,5.822 0.358,0.37 0.755,0.723 1.202,1.058 0.432,0.337 0.901,0.633 1.394,0.885 0.477,0.252 0.983,0.459 1.501,0.598 0.52,0.149 1.036,0.223 1.551,0.243 C -0.229,5.417 -0.059,5.392 0.166,5.364 0.386,5.324 0.613,5.261 0.863,5.175 1.119,5.086 1.359,4.986 1.594,4.859 1.828,4.738 2.007,4.589 2.152,4.409 2.577,3.894 2.913,3.36 3.163,2.824 3.4,2.273 3.533,1.68 3.552,1.036 3.558,0.308 3.462,-0.399 3.24,-1.093 3.03,-1.791 2.679,-2.503 2.195,-3.22 1.714,-3.937 1.082,-4.679 0.299,-5.442 c -0.768,-0.76 -1.708,-1.577 -2.805,-2.445 -0.697,-0.544 -1.458,-1.153 -2.3,-1.817 -0.851,-0.665 -1.862,-1.357 -3.051,-2.086 -0.04,-1.526 0.387,-2.7 1.285,-3.52 0.912,-0.82 2.158,-1.252 3.766,-1.296 0.901,-0.02 1.811,0.075 2.732,0.286 0.919,0.208 1.825,0.498 2.72,0.863 0.89,0.366 1.756,0.777 2.591,1.257 0.842,0.47 1.631,0.96 2.374,1.462 1.367,0.944 2.599,1.878 3.715,2.827 1.116,0.937 2.22,1.927 3.323,2.971 l 1.307,1.24 c 0.78,0.658 1.356,0.984 1.708,0.972 0.185,-0.004 0.277,-0.153 0.266,-0.457 m -67.999,0.225 c 0.227,-0.538 0.256,-1.008 0.091,-1.414 -0.163,-0.414 -0.387,-0.801 -0.671,-1.186 -0.382,-0.422 -0.83,-0.848 -1.335,-1.279 -0.512,-0.425 -1.041,-0.841 -1.593,-1.246 -0.562,-0.402 -1.129,-0.794 -1.705,-1.158 -0.586,-0.357 -1.144,-0.689 -1.681,-0.995 -0.582,-0.319 -1.205,-0.661 -1.862,-1.017 -0.641,-0.349 -1.276,-0.696 -1.886,-1.041 -0.607,-0.334 -1.166,-0.675 -1.668,-0.99 -0.503,-0.321 -0.891,-0.624 -1.172,-0.894 0.269,-1.453 0.488,-2.843 0.669,-4.189 0.179,-1.341 0.413,-2.643 0.697,-3.935 0.062,-0.302 0.166,-0.738 0.312,-1.337 0.144,-0.588 0.296,-1.2 0.469,-1.835 0.184,-0.641 0.347,-1.243 0.508,-1.796 0.169,-0.553 0.308,-0.951 0.398,-1.182 0.262,-0.59 0.548,-0.994 0.866,-1.21 0.311,-0.211 0.625,-0.358 0.934,-0.442 0.296,-0.084 0.576,-0.167 0.829,-0.241 0.263,-0.079 0.453,-0.278 0.596,-0.595 0.085,-0.206 0.076,-0.444 -0.035,-0.712 -0.111,-0.275 -0.277,-0.539 -0.484,-0.808 -0.213,-0.259 -0.456,-0.497 -0.733,-0.718 -0.281,-0.213 -0.543,-0.37 -0.765,-0.47 -0.413,-0.179 -0.842,-0.231 -1.276,-0.141 -0.438,0.085 -0.845,0.26 -1.233,0.528 -0.404,0.268 -0.762,0.613 -1.104,1.035 -0.333,0.42 -0.614,0.889 -0.835,1.393 -0.287,0.664 -0.536,1.398 -0.752,2.202 -0.213,0.812 -0.407,1.655 -0.58,2.522 -0.176,0.872 -0.342,1.766 -0.506,2.685 -0.166,0.909 -0.345,1.822 -0.53,2.716 -0.077,0.379 -0.161,0.773 -0.238,1.169 -0.077,0.411 -0.15,0.788 -0.23,1.141 -0.077,0.355 -0.139,0.652 -0.201,0.883 -0.043,0.233 -0.077,0.376 -0.099,0.423 -0.095,0.225 -0.259,0.37 -0.475,0.417 -0.224,0.052 -0.449,0.027 -0.68,-0.073 -0.173,-0.075 -0.429,-0.207 -0.762,-0.375 -0.33,-0.182 -0.685,-0.382 -1.048,-0.59 -0.361,-0.208 -0.716,-0.41 -1.048,-0.586 -0.33,-0.18 -0.574,-0.304 -0.737,-0.376 -0.518,-0.225 -0.983,-0.381 -1.369,-0.472 -0.385,-0.094 -0.731,-0.103 -1.029,-0.024 -0.309,0.07 -0.574,0.243 -0.821,0.504 -0.237,0.269 -0.471,0.642 -0.684,1.14 -0.083,0.197 -0.062,0.395 0.071,0.593 0.145,0.202 0.336,0.384 0.58,0.551 0.246,0.168 0.515,0.32 0.819,0.454 0.3,0.136 0.565,0.265 0.799,0.363 0.182,0.081 0.487,0.229 0.891,0.451 0.419,0.227 0.85,0.464 1.301,0.703 0.447,0.247 0.878,0.491 1.292,0.712 0.41,0.216 0.709,0.369 0.89,0.45 0.09,0.039 0.195,0.093 0.299,0.156 0.108,0.063 0.213,0.156 0.3,0.268 0.101,0.122 0.166,0.281 0.2,0.476 0.04,0.196 0.024,0.443 -0.016,0.749 -0.095,0.497 -0.207,1.074 -0.314,1.736 -0.12,0.665 -0.243,1.343 -0.36,2.036 -0.127,0.694 -0.242,1.366 -0.346,2.017 -0.108,0.647 -0.206,1.205 -0.28,1.66 -0.056,0.464 -0.127,0.952 -0.238,1.447 -0.108,0.51 -0.213,1.008 -0.34,1.507 -0.123,0.495 -0.227,0.982 -0.313,1.46 -0.083,0.478 -0.136,0.932 -0.127,1.36 -0.009,0.894 0.336,1.495 1.055,1.801 1.056,0.464 1.855,0.105 2.37,-1.079 0.324,-0.739 0.524,-1.654 0.623,-2.745 0.262,-2.501 0.533,-4.537 0.823,-6.103 0.286,-1.571 0.542,-2.599 0.752,-3.085 0.234,-0.544 0.617,-0.694 1.15,-0.461 0.654,0.284 1.251,0.563 1.825,0.836 0.551,0.271 1.113,0.549 1.686,0.857 0.559,0.302 1.156,0.631 1.764,0.987 0.616,0.358 1.312,0.756 2.084,1.189 0.555,0.329 1.066,0.652 1.551,0.991 0.486,0.325 0.933,0.634 1.337,0.925 0.404,0.289 0.768,0.552 1.07,0.789 0.314,0.239 0.576,0.416 0.802,0.549 0.15,0.081 0.292,0.17 0.434,0.268 0.135,0.097 0.268,0.153 0.379,0.178 0.12,0.036 0.235,0.013 0.336,-0.058 0.111,-0.067 0.21,-0.208 0.309,-0.419" /></g><g
           transform="translate(392.2975,166.0889)"
           id="g4193"><path
             id="path4195"
             style="fill:#40b93c;fill-opacity:1;fill-rule:evenodd;stroke:none"
             d="m 0,0 c -0.832,-4.437 -6.474,-7.671 -9.951,-9.184 -6.61,-2.843 -13.527,-4.862 -20.666,-5.761 -1.178,-1.02 -1.366,-8.681 -1.554,-10.158 -0.237,-1.797 -0.293,-4.655 -2.91,-4.166 -4.563,0.852 0.872,18.189 2.207,22.021 0.33,1.514 1.273,3.37 1.621,4.587 0.833,2.137 3.24,9.076 5.876,8.589 3.662,-0.687 -1.146,-7.502 -1.884,-9.427 -0.925,-2.398 -1.775,-4.848 -2.383,-7.352 5.315,1.189 10.686,2.147 15.809,4.046 2.75,1.025 14.279,6.974 8.172,9.908 -7.996,3.885 -18.323,3.611 -26.776,2.381 -2.362,-0.421 -2.605,2.047 -0.888,3.285 C -28.222,12.538 1.835,9.798 0,0" /></g><g
           transform="translate(458.2311,153.8599)"
           id="g4197"><path
             id="path4199"
             style="fill:#40b93c;fill-opacity:1;fill-rule:evenodd;stroke:none"
             d="m 0,0 c 0.263,-10.432 -0.863,-35.943 -13.089,-36.247 -4.066,-0.097 -8.472,1.423 -11.425,4.262 -1.103,1.236 -1.649,1.934 -0.967,3.506 1.032,2.089 2.241,-0.619 3.134,-1.393 3.203,-2.696 9.751,-4.63 12.733,-0.663 3.852,4.892 3.979,11.203 4.678,17.058 -4.17,-2.137 -14.282,-11.247 -18.29,-5.608 -1.753,2.432 -1.568,5.435 -1.173,8.247 -4.391,-4.613 -11.148,-9.687 -17.785,-9.129 -7.765,0.764 -3.866,10.23 -5.531,15.007 -0.569,1.723 -5.348,-2.443 -5.922,-2.938 -4.938,-4.29 -8.68,-9.273 -12.342,-14.628 -1.958,-2.461 -4.251,0.004 -3.66,2.436 2.698,10.504 4.529,21.106 6.031,31.832 0.249,1.893 1.275,6.609 4.019,6.343 3.508,-0.342 0.237,-6.95 -0.141,-8.775 -1.428,-6.647 -2.211,-13.532 -3.958,-20.109 -0.118,-0.444 -1.037,-2.976 0.033,-3.077 4.754,4.77 8.782,11.423 15.598,13.573 8.33,2.689 1.801,-14.806 6.462,-15.263 7.593,-0.744 12.1,4.411 17.833,8.07 0.679,2.767 1.234,8.955 4.973,9.049 1.388,0.033 2.013,-2.37 1.445,-3.397 -2.127,-4.004 -4.266,-8.544 -2.844,-13.196 1.636,-5.203 14.593,4.11 15.457,7.962 0.643,2.087 -0.935,10.114 2.536,10.199 C -0.142,3.172 -0.046,1.694 0,0" /></g><g
           transform="translate(492.8375,172.9233)"
           id="g4201"><path
             id="path4203"
             style="fill:#40b93c;fill-opacity:1;fill-rule:evenodd;stroke:none"
             d="M 0,0 C 1.163,-5.779 -8.15,-6.622 -5.943,-1.531 -5.092,0.442 -0.789,3.892 0,0" /></g><g
           transform="translate(527.2135,158.7427)"
           id="g4205"><path
             id="path4207"
             style="fill:#40b93c;fill-opacity:1;fill-rule:evenodd;stroke:none"
             d="M 0,0 C -0.435,1.467 -2.143,4.996 -4.18,3.989 -7.867,4.172 -8.302,5.042 -9.701,1.15 -10.728,-1.819 -12.238,-5.174 -12.103,-8.376 -11.582,-20.5 0.506,-10.062 0.456,-2.836 0.432,-1.887 0.299,-0.902 0,0 M 15.315,8.265 15.303,8.296 C 12.251,4.612 5.866,3.233 1.378,4.347 6.708,0.174 2.895,-10.54 -1.141,-14.326 c -3.736,-3.511 -9.122,-6.143 -13.129,-1.616 -1.526,1.703 -1.8,4.336 -1.785,6.543 -2.873,-5.187 -11.051,-18.98 -18.213,-13.194 -3.686,3.056 -5.031,8.582 -5.503,13.161 -4.365,-6.778 -10.441,-12.547 -16.06,-18.257 -2.257,-2.264 -6.104,-5.043 -9.612,-4.108 -0.598,0.161 -3.105,1.179 -3.154,1.571 -3.967,4.598 4.091,2.423 6.951,3.315 3.657,1.147 6.82,3.317 2.51,8.308 -6.433,6.753 -7.013,12.619 -2.185,15.543 10.543,4.794 16.184,-2.489 10.551,-2.454 -2.996,0.776 -8.366,-0.611 -9.316,-3.705 0.164,-1.438 5.574,-10.317 6.644,-10.196 0.241,0.026 0.635,0.249 1.183,0.665 3.623,2.755 11.78,10.06 12.199,14.719 0.151,1.667 3.61,5.816 4.251,2.645 1.038,-5.156 -0.095,-24.04 9.874,-15.549 4.473,3.923 8.425,9.498 10.965,14.87 1.554,3.79 5.003,14.606 11.714,10.573 4.914,-2.95 12.843,-0.906 17.375,2.46 0.53,-0.592 1.104,-1.145 1.708,-1.659 -0.176,-0.343 -0.346,-0.69 -0.512,-1.044" /></g><g
           transform="translate(556.5426,153.9028)"
           id="g4209"><path
             id="path4211"
             style="fill:#40b93c;fill-opacity:1;fill-rule:evenodd;stroke:none"
             d="m 0,0 c -1.471,-3.742 -3.456,-9.065 -8.037,-9.748 -0.619,-0.087 -3.322,-0.149 -3.517,0.195 -5.46,2.648 2.796,3.844 5.062,5.795 2.91,2.506 4.947,5.751 -0.989,8.624 -8.586,3.652 -11.438,8.806 -8.164,13.401 7.769,8.584 15.839,4.133 10.651,1.931 -3.049,-0.472 -7.429,-3.875 -7.078,-7.094 C -11.15,11.486 -4.229,7.771 -1.911,6.608 1.372,4.202 0.61,2.856 0,0" /></g><g
           transform="translate(215.7926,187.9683)"
           id="g4213"><path
             id="path4215"
             style="fill:#0994dc;fill-opacity:1;fill-rule:evenodd;stroke:none"
             d="m 0,0 c -10.722,-0.06 -25.031,-25.381 -12.444,-30.919 8.712,-3.959 20.204,7.88 22.342,15.492 0.732,2.728 1.095,5.863 0.855,8.687 C 10.34,-1.934 4.017,0.025 0,0 m 123.267,-30.397 c 0.28,1.498 0.373,5.419 -1.903,5.45 -3.2,1.842 -3.196,2.813 -6.212,-0.013 -2.265,-2.18 -5.138,-4.475 -6.476,-7.39 -5.056,-11.034 10.454,-7.243 13.709,-0.78 0.401,0.854 0.733,1.79 0.882,2.733 m 15.758,-0.086 c -4.272,-0.824 -9.269,0.47 -12.552,3.323 2.844,-6.147 -5.429,-13.94 -10.747,-15.477 -4.926,-1.421 -10.922,-1.318 -12.423,4.539 -0.528,1.993 0.21,4.143 1.045,5.947 -5.062,-3.786 -17.726,-10.08 -18.784,0.613 -0.25,2.721 0.497,6.691 -0.348,9.263 -0.548,1.733 -5.398,-2.34 -5.974,-2.824 -5.015,-4.194 -8.857,-9.108 -12.621,-14.392 -2.001,-2.426 -4.248,0.085 -3.613,2.505 1.721,6.204 3.169,12.462 4.436,18.778 -4.525,-0.732 -9.751,0.455 -14.032,-0.69 -1.628,-4.819 -4.159,-10.067 -4.677,-15.212 -0.244,-2.437 4.15,-4.785 -0.638,-5.548 -7.991,-1.254 -0.348,16.328 0.475,19.294 1.038,3.312 -8.844,-0.999 -8.351,4.564 -0.189,-0.031 -0.413,0.023 -0.601,0.038 -11.746,0.973 -15.59,-9.448 -18.947,-18.51 -0.169,-0.566 -2.33,-1.002 -2.866,-0.974 -3.796,-0.051 -0.439,15.754 -0.133,17.427 0.246,1.448 1.075,9.864 4.235,8.171 2.747,-1.536 -0.74,-9.688 -1.162,-12.006 -0.296,-1.61 -0.552,-3.228 -0.82,-4.842 3.274,6.517 8.989,16.203 17.335,14.854 1.815,-0.297 4.488,-1.196 3.502,-3.486 2.391,0.912 8.622,-1.693 9.682,1.102 1.397,4.149 2.778,8.332 4.221,12.459 0.406,1.171 1.051,2.671 2.562,2.522 4.457,-0.445 -2.319,-12.307 -2.566,-14.822 -0.209,-2.129 11.625,-1.212 13.386,-1.021 0.459,2.507 1.205,16.408 5.727,15.879 3.511,-0.411 0.118,-6.951 -0.298,-8.772 -0.538,-2.284 -1.024,-4.576 -1.462,-6.886 0.388,-0.301 -1.421,-6.67 -1.603,-7.53 -0.263,-1.301 -2.503,-8.548 -1.301,-8.692 4.825,4.687 9.005,11.257 15.852,13.276 8.382,2.526 1.516,-14.837 6.171,-15.385 2.096,-0.244 4.175,-0.008 6.203,0.702 5.443,1.907 10.56,5.786 14.803,9.593 3.24,2.972 9.09,6.197 12.099,1.357 2.5,-3.995 8.182,-5.605 12.671,-5.944 3.693,0.244 4.433,-2.204 2.114,-3.193 m -123.136,20.5 c 0.052,-8.261 -6.458,-16.049 -12.504,-20.926 -8.487,-6.863 -21.718,-7.696 -24.924,4.724 -3.023,11.399 8.9,29.549 21.053,29.616 9.115,0.051 16.313,-3.026 16.375,-13.414" /></g><g
           transform="translate(60.5094,104.7598)"
           id="g4217"><path
             id="path4219"
             style="fill:#0994dc;fill-opacity:1;fill-rule:evenodd;stroke:none"
             d="m 0,0 46.66,19.345 c 3.703,1.537 7.991,-0.239 9.529,-3.946 L 65.761,-7.69 c 1.535,-3.706 -0.24,-7.991 -3.949,-9.526 L 15.154,-36.56 c -3.702,-1.532 -7.993,0.241 -9.522,3.943 L -3.945,-9.529 C -5.478,-5.822 -3.705,-1.535 0,0" /></g><g
           transform="translate(133.4811,129.127)"
           id="g4221"><path
             id="path4223"
             style="fill:#0994dc;fill-opacity:1;fill-rule:evenodd;stroke:none"
             d="m 0,0 42.77,8.034 c 3.397,0.639 6.695,-1.616 7.339,-5.013 l 3.971,-21.169 c 0.639,-3.394 -1.618,-6.696 -5.01,-7.332 L 6.289,-33.518 c -3.394,-0.638 -6.699,1.62 -7.334,5.017 L -5.021,-7.334 C -5.657,-3.938 -3.4,-0.637 0,0" /></g><g
           transform="translate(199.2633,137.0908)"
           id="g4225"><path
             id="path4227"
             style="fill:#0994dc;fill-opacity:1;fill-rule:evenodd;stroke:none"
             d="m 0,0 38.676,0.07 c 3.07,0.009 5.586,-2.502 5.589,-5.571 l 0.037,-19.138 c 0.003,-3.067 -2.506,-5.586 -5.571,-5.589 L 0.056,-30.299 c -3.068,-0.006 -5.583,2.504 -5.589,5.572 L -5.57,-5.59 C -5.573,-2.52 -3.073,-0.004 0,0" /></g><g
           transform="translate(256.5065,135.6548)"
           id="g4229"><path
             id="path4231"
             style="fill:#0994dc;fill-opacity:1;fill-rule:evenodd;stroke:none"
             d="m 0,0 33.953,-2.952 c 2.697,-0.231 4.704,-2.626 4.474,-5.324 l -1.462,-16.803 c -0.235,-2.694 -2.633,-4.707 -5.323,-4.471 l -33.954,2.949 c -2.691,0.235 -4.708,2.631 -4.473,5.325 l 1.461,16.803 C -5.09,-1.78 -2.694,0.234 0,0" /></g><g
           transform="translate(305.7379,129.605)"
           id="g4233"><path
             id="path4235"
             style="fill:#0994dc;fill-opacity:1;fill-rule:evenodd;stroke:none"
             d="m 0,0 29.625,-3.157 c 2.352,-0.251 4.072,-2.381 3.822,-4.732 L 31.885,-22.55 c -0.256,-2.351 -2.38,-4.073 -4.733,-3.821 l -29.628,3.161 c -2.352,0.252 -4.069,2.378 -3.822,4.729 L -4.729,-3.82 C -4.482,-1.471 -2.353,0.251 0,0" /></g><g
           transform="translate(349.5094,123.1895)"
           id="g4237"><path
             id="path4239"
             style="fill:#0994dc;fill-opacity:1;fill-rule:evenodd;stroke:none"
             d="m 0,0 25.115,-4.32 c 1.997,-0.339 3.345,-2.254 2.999,-4.245 l -2.13,-12.427 c -0.348,-1.992 -2.259,-3.342 -4.248,-2.999 l -25.115,4.315 c -1.994,0.344 -3.345,2.254 -2.996,4.247 l 2.133,12.427 C -3.899,-1.008 -1.988,0.342 0,0" /></g><g
           transform="translate(386.2281,115.8877)"
           id="g4241"><path
             id="path4243"
             style="fill:#0994dc;fill-opacity:1;fill-rule:evenodd;stroke:none"
             d="m 0,0 22.128,-2.42 c 1.763,-0.194 3.039,-1.786 2.845,-3.543 l -1.2,-10.955 c -0.187,-1.759 -1.788,-3.036 -3.542,-2.845 l -22.133,2.421 c -1.757,0.193 -3.039,1.787 -2.842,3.545 l 1.195,10.952 C -3.354,-1.086 -1.767,0.191 0,0" /></g><g
           transform="translate(419.6481,110.2266)"
           id="g4245"><path
             id="path4247"
             style="fill:#0994dc;fill-opacity:1;fill-rule:evenodd;stroke:none"
             d="m 0,0 18.607,-1.344 c 1.48,-0.108 2.602,-1.406 2.491,-2.881 l -0.663,-9.21 c -0.105,-1.477 -1.399,-2.6 -2.879,-2.494 l -18.611,1.346 c -1.473,0.106 -2.592,1.404 -2.487,2.881 l 0.662,9.21 C -2.771,-1.014 -1.477,0.108 0,0" /></g><g
           transform="translate(447.3365,107.8818)"
           id="g4249"><path
             id="path4251"
             style="fill:#0994dc;fill-opacity:1;fill-rule:evenodd;stroke:none"
             d="m 0,0 16.586,-0.11 c 1.315,-0.007 2.392,-1.09 2.379,-2.407 l -0.055,-8.208 c -0.004,-1.317 -1.085,-2.385 -2.414,-2.379 l -16.585,0.108 c -1.31,0.009 -2.38,1.094 -2.374,2.409 l 0.056,8.209 C -2.404,-1.064 -1.316,0.008 0,0" /></g><g
           transform="translate(473.3737,106.7539)"
           id="g4253"><path
             id="path4255"
             style="fill:#0994dc;fill-opacity:1;fill-rule:evenodd;stroke:none"
             d="m 0,0 13.715,0.72 c 1.092,0.055 2.025,-0.787 2.084,-1.879 l 0.354,-6.785 c 0.059,-1.087 -0.786,-2.027 -1.874,-2.081 l -13.712,-0.72 c -1.091,-0.056 -2.028,0.786 -2.081,1.879 l -0.357,6.78 C -1.93,-0.994 -1.085,-0.056 0,0" /></g><g
           transform="translate(493.3893,107.1455)"
           id="g4257"><path
             id="path4259"
             style="fill:#0994dc;fill-opacity:1;fill-rule:evenodd;stroke:none"
             d="m 0,0 11.429,1.281 c 0.899,0.098 1.722,-0.559 1.828,-1.467 l 0.625,-5.653 C 13.98,-6.747 13.324,-7.571 12.418,-7.672 L 0.993,-8.944 C 0.1,-9.046 -0.724,-8.387 -0.832,-7.479 l -0.629,5.646 C -1.565,-0.925 -0.899,-0.098 0,0" /></g><g
           transform="translate(510.6774,108.5684)"
           id="g4261"><path
             id="path4263"
             style="fill:#0994dc;fill-opacity:1;fill-rule:evenodd;stroke:none"
             d="M 0,0 9.606,1.649 C 10.371,1.78 11.102,1.264 11.23,0.504 l 0.818,-4.754 c 0.133,-0.766 -0.386,-1.496 -1.15,-1.626 l -9.603,-1.65 c -0.768,-0.13 -1.498,0.386 -1.631,1.151 l -0.81,4.753 C -1.276,-0.86 -0.765,-0.127 0,0" /></g><g
           transform="translate(525.2682,110.1572)"
           id="g4265"><path
             id="path4267"
             style="fill:#0994dc;fill-opacity:1;fill-rule:evenodd;stroke:none"
             d="M 0,0 7.158,1.668 C 7.731,1.8 8.299,1.444 8.435,0.879 l 0.82,-3.55 C 9.394,-3.238 9.039,-3.812 8.465,-3.941 L 1.305,-5.613 C 0.737,-5.743 0.16,-5.389 0.031,-4.818 l -0.826,3.544 C -0.928,-0.707 -0.567,-0.131 0,0" /></g><g
           transform="translate(537.0817,111.9277)"
           id="g4269"><path
             id="path4271"
             style="fill:#0994dc;fill-opacity:1;fill-rule:evenodd;stroke:none"
             d="M 0,0 5.114,1.516 C 5.521,1.638 5.952,1.403 6.069,0.996 L 6.818,-1.536 C 6.945,-1.944 6.714,-2.378 6.307,-2.498 L 1.181,-4.01 C 0.773,-4.13 0.345,-3.896 0.222,-3.49 l -0.746,2.533 C -0.65,-0.55 -0.413,-0.119 0,0" /></g><g
           transform="translate(546.3785,113.9966)"
           id="g4273"><path
             id="path4275"
             style="fill:#0994dc;fill-opacity:1;fill-rule:evenodd;stroke:none"
             d="M 0,0 4.116,1.215 C 4.437,1.313 4.785,1.124 4.884,0.795 l 0.6,-2.033 C 5.58,-1.564 5.396,-1.911 5.071,-2.005 L 0.953,-3.227 C 0.626,-3.32 0.274,-3.135 0.186,-2.81 l -0.608,2.038 C -0.518,-0.444 -0.329,-0.097 0,0" /></g><g
           transform="translate(553.608,115.686)"
           id="g4277"><path
             id="path4279"
             style="fill:#0994dc;fill-opacity:1;fill-rule:evenodd;stroke:none"
             d="M 0,0 3.107,0.922 C 3.363,0.994 3.619,0.853 3.692,0.603 L 4.149,-0.936 C 4.224,-1.181 4.075,-1.443 3.832,-1.515 L 0.719,-2.437 C 0.475,-2.509 0.222,-2.368 0.139,-2.121 L -0.32,-0.584 C -0.389,-0.336 -0.25,-0.074 0,0" /></g><g
           transform="translate(559.4586,117.0767)"
           id="g4281"><path
             id="path4283"
             style="fill:#0994dc;fill-opacity:1;fill-rule:evenodd;stroke:none"
             d="M 0,0 2.105,0.621 C 2.27,0.672 2.444,0.578 2.497,0.408 l 0.306,-1.04 C 2.849,-0.797 2.756,-0.979 2.593,-1.025 L 0.487,-1.649 C 0.314,-1.699 0.139,-1.602 0.09,-1.435 l -0.306,1.04 C -0.262,-0.229 -0.173,-0.048 0,0" /></g></g></g></g></svg>