<?xml version="1.0" encoding="utf-8"?>
<svg id="svg4234" style="clip-rule:evenodd;fill-rule:evenodd;image-rendering:optimizeQuality;shape-rendering:geometricPrecision;text-rendering:geometricPrecision" width="45.212769in" height="11.047159in" viewBox="0 0 32640.587 2669.9341" preserveAspectRatio="xMidYMid slice" xmlns="http://www.w3.org/2000/svg">
  <defs id="defs4236">
    <style type="text/css" id="style4238">
   
    .fil1 {fill:#0098DA}
    .fil0 {fill:#A8CF45}
   
  </style>
  </defs>
  <g id="Layer_x0020_1" transform="matrix(1, 0, 0, 1, 8534.561523, -3560.360352)">
    <path class="fil0" d="m 2965,4153 c 5,12 6,22 2,30 -4,9 -8,17 -14,26 -8,9 -18,18 -29,28 -11,9 -23,18 -34,27 -12,9 -24,17 -37,25 -13,8 -25,15 -36,21 -13,7 -26,14 -40,22 -14,8 -28,15 -41,22 -13,7 -25,15 -36,21 -11,7 -19,13 -25,19 6,31 11,61 14,90 4,29 9,57 15,85 1,6 4,16 7,29 3,13 6,26 10,40 4,14 7,27 11,39 4,12 6,21 9,26 6,13 12,21 19,26 7,5 14,8 20,10 6,2 13,4 18,5 6,2 10,6 13,13 2,4 2,10 -1,15 -2,6 -6,12 -10,17 -5,6 -10,11 -16,15 -6,5 -12,8 -16,10 -9,4 -18,5 -28,3 -9,-2 -18,-6 -27,-11 -9,-6 -16,-13 -24,-22 -7,-9 -13,-19 -18,-30 -6,-14 -12,-30 -16,-48 -5,-18 -9,-36 -12,-54 -4,-19 -7,-38 -11,-58 -4,-20 -7,-39 -11,-59 -2,-8 -3,-17 -5,-25 -2,-9 -3,-17 -5,-25 -2,-8 -3,-14 -4,-19 -1,-5 -2,-8 -2,-9 -2,-5 -6,-8 -10,-9 -5,-1 -10,-1 -15,2 -4,2 -9,4 -16,8 -7,4 -15,8 -23,13 -8,5 -16,9 -23,13 -7,4 -13,7 -16,8 -11,5 -21,8 -30,10 -8,2 -16,2 -22,1 -7,-2 -12,-5 -18,-11 -5,-6 -10,-14 -15,-25 -2,-4 -1,-9 2,-13 3,-4 7,-8 12,-12 5,-4 11,-7 18,-10 6,-3 12,-6 17,-8 4,-2 11,-5 19,-10 9,-5 18,-10 28,-15 10,-5 19,-11 28,-15 9,-5 15,-8 19,-10 2,-1 4,-2 6,-3 2,-1 5,-3 7,-6 2,-3 4,-6 4,-10 1,-4 1,-10 0,-16 -2,-11 -4,-23 -7,-38 -3,-14 -5,-29 -8,-44 -3,-15 -5,-29 -7,-43 -2,-14 -4,-26 -6,-36 -1,-10 -3,-21 -5,-31 -2,-11 -5,-22 -7,-32 -3,-11 -5,-21 -7,-31 -2,-10 -3,-20 -3,-29 0,-19 7,-32 23,-39 23,-10 40,-2 51,23 7,16 11,36 13,59 6,54 12,98 18,132 6,34 12,56 16,67 5,12 13,15 25,10 14,-6 27,-12 39,-18 12,-6 24,-12 36,-18 12,-7 25,-14 38,-21 13,-8 28,-16 45,-26 12,-7 23,-14 33,-21 10,-7 20,-14 29,-20 9,-6 17,-12 23,-17 7,-5 12,-9 17,-12 3,-2 6,-4 9,-6 3,-2 6,-3 8,-4 3,-1 5,0 7,1 2,1 5,4 7,9 z m 1468,5 c 0,5 -4,14 -12,27 -18,25 -39,50 -61,75 -23,25 -47,49 -72,71 -25,22 -51,43 -79,62 -27,19 -55,36 -82,49 -28,14 -55,24 -82,31 -27,7 -53,10 -79,9 -54,-1 -96,-18 -126,-51 -29,-32 -43,-81 -41,-145 0,-16 2,-31 3,-47 -4,6 -7,11 -10,15 -16,23 -34,46 -52,67 -19,22 -39,42 -60,60 -21,18 -43,34 -67,47 -23,13 -48,22 -74,26 -20,3 -38,2 -54,-2 -17,-5 -31,-15 -42,-30 -11,-15 -21,-32 -29,-52 -8,-20 -15,-41 -22,-64 -1,-4 -2,-9 -4,-16 -2,-7 -4,-15 -6,-24 -2,-9 -5,-18 -8,-27 -3,-9 -6,-18 -9,-25 -3,-7 -6,-13 -9,-18 -3,-5 -6,-7 -9,-6 -10,2 -23,11 -39,28 -16,17 -32,38 -50,65 -18,26 -35,56 -53,88 -18,32 -34,65 -48,98 -13,28 -24,56 -34,84 -10,28 -18,52 -25,73 -4,10 -9,17 -15,21 -6,5 -10,7 -12,8 -5,1 -11,1 -17,-1 -6,-1 -11,-4 -17,-7 -5,-3 -10,-7 -13,-12 -4,-5 -6,-10 -7,-15 -1,-4 -1,-12 -1,-22 0,-10 0,-22 0,-34 0,-13 0,-26 0,-39 0,-14 0,-26 -1,-38 -1,-23 -3,-47 -4,-74 -1,-27 -3,-54 -5,-82 -2,-27 -4,-54 -6,-80 -2,-26 -4,-50 -6,-71 -1,-7 -2,-16 -3,-27 -1,-11 -3,-23 -4,-37 -2,-13 -3,-28 -5,-42 -2,-15 -4,-29 -5,-43 -2,-14 -3,-27 -5,-40 -2,-12 -3,-23 -4,-31 -1,-10 -2,-18 -3,-26 0,-8 -1,-16 0,-24 0,-8 1,-16 3,-25 1,-8 4,-18 6,-28 1,-3 2,-7 5,-11 2,-4 5,-8 9,-12 3,-4 7,-7 11,-10 4,-3 9,-5 13,-6 10,-2 19,1 28,7 9,6 15,16 17,30 1,4 1,10 1,18 0,8 -1,15 -2,24 -1,8 -1,16 -2,24 -1,8 -1,13 -1,17 0,14 0,30 1,49 1,18 2,37 3,55 1,19 3,37 4,55 2,18 3,34 5,49 2,16 3,31 4,46 1,14 2,29 2,43 1,14 2,28 3,43 1,14 2,30 4,47 2,25 3,48 3,67 0,20 1,36 4,49 0,2 2,4 4,7 3,2 5,3 7,3 l 2,0 c 2,-4 5,-10 9,-19 3,-8 7,-17 12,-27 5,-10 9,-20 14,-30 5,-11 10,-21 15,-30 5,-9 11,-19 17,-30 6,-11 12,-22 19,-33 7,-11 13,-22 20,-33 7,-11 14,-22 20,-31 9,-12 18,-25 29,-38 11,-13 22,-26 35,-38 12,-12 25,-22 38,-30 13,-9 26,-14 39,-16 2,0 6,0 10,1 4,1 8,2 12,4 4,2 9,4 12,7 4,3 7,7 10,11 10,17 18,34 24,52 6,18 12,36 18,56 5,17 10,34 15,52 5,18 11,34 17,48 6,14 13,25 20,34 7,8 16,12 25,10 41,-7 79,-23 114,-48 18,-13 34,-26 48,-37 13,-12 25,-23 36,-35 11,-12 22,-25 32,-39 10,-14 23,-30 36,-48 18,-24 32,-39 40,-48 18,-44 45,-86 82,-126 8,-8 16,-16 26,-23 9,-7 20,-14 30,-19 10,-5 21,-10 32,-13 11,-3 22,-5 34,-5 3,0 6,1 11,1 5,1 10,2 15,4 6,2 11,4 16,7 5,3 9,6 12,10 9,11 16,23 22,34 5,12 8,25 8,39 0,16 -2,31 -7,46 -5,15 -12,30 -23,46 -10,15 -24,31 -41,48 -17,16 -37,34 -61,53 -15,12 -32,25 -50,39 -18,14 -40,29 -66,45 -1,33 8,58 28,76 20,18 46,27 81,28 19,1 39,-2 59,-6 20,-5 39,-11 59,-19 19,-8 38,-17 56,-27 18,-10 35,-21 51,-32 29,-20 56,-41 80,-61 24,-20 48,-42 72,-64 l 28,-27 c 17,-14 29,-21 37,-21 4,0 6,3 6,10 z m -387,-112 c 0,-5 -1,-10 -2,-15 -1,-5 -3,-9 -5,-13 -2,-4 -5,-7 -8,-9 -3,-2 -7,-3 -11,-4 -18,1 -36,11 -55,31 -19,20 -36,48 -53,82 -4,7 -8,16 -11,25 -3,9 -6,19 -9,28 -3,10 -5,19 -7,29 -2,9 -4,18 -6,25 18,-13 35,-25 50,-35 15,-11 29,-22 43,-34 8,-7 17,-15 26,-24 9,-8 17,-17 24,-27 7,-9 13,-19 17,-29 4,-10 7,-20 7,-31 z" id="path4241" style="fill:#a8cf45"/>
    <path class="fil0" d="m 9602,4118 c -18,96 -140,166 -215,198 -143,61 -292,105 -446,124 -25,22 -29,187 -34,219 -5,39 -6,100 -63,90 -99,-18 19,-393 47,-475 7,-33 28,-73 35,-99 18,-46 70,-196 127,-185 79,15 -25,162 -41,203 -20,52 -38,105 -52,159 115,-26 231,-46 341,-87 59,-22 308,-151 176,-214 -173,-84 -395,-78 -578,-51 -51,9 -56,-44 -19,-71 110,-81 759,-22 719,189 z" id="path4243" style="fill:#a8cf45"/>
    <path class="fil0" d="m 11025,4382 c 6,225 -19,776 -282,782 -88,2 -183,-31 -247,-92 -24,-27 -36,-42 -21,-76 22,-45 48,13 68,30 69,58 211,100 275,14 83,-106 86,-242 101,-368 -90,46 -308,243 -395,121 -38,-52 -34,-117 -25,-178 -95,100 -241,209 -384,197 -168,-16 -83,-221 -119,-324 -12,-37 -115,53 -128,63 -107,93 -187,200 -266,316 -42,53 -92,0 -79,-53 58,-227 98,-455 130,-687 5,-41 28,-143 87,-137 76,7 5,150 -3,189 -31,144 -48,292 -86,434 -2,10 -22,64 1,66 103,-103 190,-247 337,-293 180,-58 39,320 140,329 164,16 261,-95 385,-174 15,-60 27,-193 107,-195 30,-1 43,51 31,73 -46,86 -92,184 -61,285 35,112 315,-89 334,-172 14,-45 -20,-218 55,-220 44,-1 46,31 47,67 z" id="path4245" style="fill:#a8cf45"/>
    <path class="fil0" d="m 11772,3970 c 25,125 -176,143 -128,33 18,-43 111,-117 128,-33 z" id="path4247" style="fill:#a8cf45"/>
    <path class="fil0" d="m 12844,4098 0,-1 c -66,80 -204,109 -301,85 115,90 33,321 -54,403 -81,76 -197,133 -283,35 -33,-37 -39,-94 -39,-141 -62,112 -238,410 -393,285 -80,-66 -109,-185 -119,-284 -94,146 -225,271 -347,394 -49,49 -132,109 -207,89 -13,-4 -67,-25 -68,-34 -86,-99 88,-52 150,-72 79,-25 147,-72 54,-179 -139,-146 -151,-272 -47,-335 228,-104 349,54 228,53 -65,-17 -181,13 -201,80 4,31 120,223 143,220 5,-1 14,-5 26,-14 78,-59 254,-217 263,-318 3,-36 78,-126 92,-57 22,111 -2,519 213,336 97,-85 182,-205 237,-321 34,-82 108,-315 253,-228 106,64 277,20 375,-53 12,13 24,25 37,36 -4,7 -8,15 -11,22 z m -331,178 c -9,-32 -46,-108 -90,-86 -80,-4 -89,-23 -119,61 -22,64 -55,137 -52,206 11,262 272,36 271,-120 -1,-20 -3,-42 -10,-61 z" id="path4249" style="fill:#a8cf45"/>
    <path class="fil0" d="m 13147,4381 c -32,81 -74,196 -173,210 -13,2 -72,3 -76,-4 -118,-57 60,-83 109,-125 63,-54 107,-124 -21,-186 -185,-79 -247,-190 -176,-289 168,-185 342,-89 230,-42 -66,10 -161,84 -153,153 20,35 169,115 219,140 71,52 55,81 41,143 z" id="path4251" style="fill:#a8cf45"/>
    <path class="fil1" d="m 6135,3861 c 1,178 -139,346 -270,452 -183,148 -469,166 -538,-102 -65,-246 192,-638 454,-639 197,-1 352,65 353,290 z m 2658,442 c -92,18 -200,-10 -271,-72 61,133 -117,301 -232,334 -106,31 -236,28 -268,-98 -11,-43 5,-89 23,-128 -109,82 -383,218 -405,-13 -5,-59 11,-144 -8,-200 -12,-37 -116,51 -129,61 -108,90 -191,197 -272,311 -43,52 -92,-2 -78,-54 37,-134 68,-269 96,-405 -98,16 -210,-10 -303,15 -35,104 -90,217 -101,328 -5,53 90,103 -14,120 -172,27 -8,-352 10,-416 22,-71 -191,22 -180,-99 -4,1 -9,0 -13,-1 -254,-21 -336,204 -409,400 -4,12 -50,22 -62,21 -82,1 -9,-340 -3,-376 5,-31 23,-213 92,-176 59,33 -16,209 -25,259 -6,35 -12,70 -18,105 71,-141 194,-350 374,-321 39,6 97,26 76,75 52,-20 186,36 209,-24 30,-90 60,-180 91,-269 9,-25 23,-58 55,-54 96,10 -50,266 -55,320 -5,46 251,26 289,22 10,-54 26,-354 124,-343 76,9 2,150 -6,189 -12,49 -22,99 -32,149 8,7 -31,144 -35,163 -6,28 -54,185 -28,188 104,-101 194,-243 342,-287 181,-54 33,320 133,332 45,5 90,0 134,-15 118,-41 228,-125 319,-207 70,-64 196,-134 261,-29 54,86 177,121 273,128 80,-5 96,48 46,69 z m -340,-2 c 6,-32 8,-117 -41,-118 -69,-40 -69,-61 -134,0 -49,47 -111,97 -140,159 -109,238 226,156 296,17 9,-18 16,-39 19,-59 z M 5793,3645 c -231,1 -540,548 -269,667 188,85 436,-170 482,-334 16,-59 23,-127 18,-188 -9,-104 -145,-146 -232,-146 z" id="path4253" style="fill:#0098da"/>
    <g id="_161024096">
      <rect width="787" height="478" rx="88" ry="88" class="fil1" transform="matrix(1.6493,-0.683727,0.683727,1.6493,2295.1,5501.63)" id="rect4256" style="fill:#0098da"/>
      <rect width="787" height="478" rx="88" ry="88" class="fil1" transform="matrix(1.51203,-0.283995,0.283995,1.51203,3882.13,4940.47)" id="rect4258" style="fill:#0098da"/>
      <rect width="787" height="478" rx="88" ry="88" class="fil1" transform="matrix(1.36692,-0.00247095,0.00247095,1.36692,5314.89,4743.74)" id="rect4260" style="fill:#0098da"/>
      <rect width="787" height="478" rx="88" ry="88" class="fil1" transform="matrix(1.20006,0.104259,-0.104259,1.20006,6565.09,4765.37)" id="rect4262" style="fill:#0098da"/>
      <rect width="787" height="478" rx="88" ry="88" class="fil1" transform="matrix(1.0472,0.111605,-0.111605,1.0472,7641.13,4895.29)" id="rect4264" style="fill:#0098da"/>
      <rect width="787" height="478" rx="88" ry="88" class="fil1" transform="matrix(0.887564,0.152619,-0.152619,0.887564,8600.08,5030.16)" id="rect4266" style="fill:#0098da"/>
      <rect width="787" height="478" rx="88" ry="88" class="fil1" transform="matrix(0.782366,0.0855547,-0.0855547,0.782366,9401.66,5193.65)" id="rect4268" style="fill:#0098da"/>
      <rect width="787" height="478" rx="88" ry="88" class="fil1" transform="matrix(0.657805,0.0475537,-0.0475537,0.657805,10134.1,5319.21)" id="rect4270" style="fill:#0098da"/>
      <rect width="787" height="478" rx="88" ry="88" class="fil1" transform="matrix(0.586284,0.00379229,-0.00379229,0.586284,10738,5373.67)" id="rect4272" style="fill:#0098da"/>
      <rect width="787" height="478" rx="88" ry="88" class="fil1" transform="matrix(0.484767,-0.0254122,0.0254122,0.484767,11309,5400.56)" id="rect4274" style="fill:#0098da"/>
      <rect width="787" height="478" rx="88" ry="88" class="fil1" transform="matrix(0.403663,-0.0450795,0.0450795,0.403663,11748.1,5393.82)" id="rect4276" style="fill:#0098da"/>
      <rect width="787" height="478" rx="88" ry="88" class="fil1" transform="matrix(0.339532,-0.058303,0.058303,0.339532,12126.9,5364.3)" id="rect4278" style="fill:#0098da"/>
      <rect width="787" height="478" rx="88" ry="88" class="fil1" transform="matrix(0.253144,-0.0589781,0.0589781,0.253144,12449.4,5330.1)" id="rect4280" style="fill:#0098da"/>
      <rect width="787" height="478" rx="88" ry="88" class="fil1" transform="matrix(0.181003,-0.0535685,0.0535685,0.181003,12710.6,5291.37)" id="rect4282" style="fill:#0098da"/>
      <rect width="787" height="478" rx="88" ry="88" class="fil1" transform="matrix(0.145469,-0.0430521,0.0430521,0.145469,12914.5,5245.84)" id="rect4284" style="fill:#0098da"/>
      <rect width="787" height="478" rx="88" ry="88" class="fil1" transform="matrix(0.109935,-0.0325358,0.0325358,0.109935,13073.7,5208.43)" id="rect4286" style="fill:#0098da"/>
      <rect width="787" height="478" rx="88" ry="88" class="fil1" transform="matrix(0.0744015,-0.0220194,0.0220194,0.0744015,13203,5177.48)" id="rect4288" style="fill:#0098da"/>
    </g>
  </g>
</svg>